<svg xmlns="http://www.w3.org/2000/svg" version="1.1" xmlns:xlink="http://www.w3.org/1999/xlink" xmlns:svgjs="http://svgjs.com/svgjs" width="1440" height="560" preserveAspectRatio="none" viewBox="0 0 1440 560"><g mask="url(&quot;#SvgjsMask1009&quot;)" fill="none"><path d="M374.33 667.43C547.8 653.11 644.9 312.2 966.82 301.78 1288.74 291.36 1407.11 162.73 1559.31 161.78" stroke="rgba(239, 68, 68, 0.29)" stroke-width="2"></path><path d="M360.65 563.16C469.96 562.19 571.57 450.17 783.05 450.16 994.52 450.15 994.25 520.16 1205.44 520.16 1416.64 520.16 1520.8 450.4 1627.84 450.16" stroke="rgba(239, 68, 68, 0.29)" stroke-width="2"></path><path d="M598.08 566.81C749.65 530.64 811.93 125.12 1036.63 123.92 1261.34 122.72 1349.7 362.07 1475.19 370.32" stroke="rgba(239, 68, 68, 0.29)" stroke-width="2"></path><path d="M160.28 648.14C347.79 640.28 476.83 336.76 839.5 328.44 1202.17 320.12 1342.38 139.83 1518.72 138.04" stroke="rgba(239, 68, 68, 0.29)" stroke-width="2"></path><path d="M643.54 653.03C813.81 624.98 902.59 210.47 1172.35 209.4 1442.11 208.33 1557.12 434.12 1701.16 439" stroke="rgba(239, 68, 68, 0.29)" stroke-width="2"></path></g><defs><mask id="SvgjsMask1009"><rect width="1440" height="560" fill="#ffffff"></rect></mask></defs></svg>