<!--?xml version="1.0" standalone="no"?-->
              <svg id="sw-js-blob-svg" viewBox="0 0 100 100" xmlns="http://www.w3.org/2000/svg" version="1.1">
                    <defs> 
                        <linearGradient id="sw-gradient" x1="0" x2="1" y1="1" y2="0">
                            <stop id="stop1" stop-color="rgba(239, 68, 68, 1)" offset="0%"></stop>
                            <stop id="stop2" stop-color="rgba(239, 68, 68, 1)" offset="100%"></stop>
                        </linearGradient>
                    </defs>
                <path fill="url(#sw-gradient)" d="M16.1,-27.1C21.5,-21.6,27,-18.2,30.6,-13.2C34.2,-8.1,35.9,-1.3,35.7,5.6C35.5,12.6,33.4,19.9,28.5,23.8C23.7,27.7,16.1,28.3,8.7,31.1C1.3,33.9,-5.8,39.1,-13.5,39.6C-21.1,40.2,-29.2,36.3,-33.6,29.9C-37.9,23.4,-38.4,14.5,-38,6.5C-37.6,-1.5,-36.1,-8.7,-33.7,-16C-31.3,-23.3,-28,-30.8,-22.2,-36.2C-16.4,-41.5,-8.2,-44.7,-1.4,-42.5C5.3,-40.3,10.7,-32.6,16.1,-27.1Z" width="100%" height="100%" transform="translate(50 50)" stroke-width="0" style="transition: all 0.3s ease 0s;" stroke="url(#sw-gradient)"></path>
              </svg>