<svg xmlns="http://www.w3.org/2000/svg" version="1.1" xmlns:xlink="http://www.w3.org/1999/xlink" xmlns:svgjs="http://svgjs.com/svgjs" width="1920" height="1080" preserveAspectRatio="none" viewBox="0 0 1920 1080"><g mask="url(&quot;#SvgjsMask1020&quot;)" fill="none"><path d="M2130.04 279.06C1984.33 278.13 1846.53 144.06 1563.03 144.06 1279.52 144.06 1289.55 281.7 996.01 279.06 702.47 276.42 606.65-135.76 429-160.48" stroke="rgba(239, 68, 68, 0.29)" stroke-width="2"></path><path d="M2133.96 506.41C1963.36 466.15 1931.87 36.09 1639.18 9.61 1346.5-16.87 1272.8-126.88 1144.41-128.16" stroke="rgba(239, 68, 68, 0.29)" stroke-width="2"></path><path d="M2290.05 405.88C2156.4 404.77 2031.41 270.88 1772.77 270.88 1514.13 270.88 1539.46 416.79 1255.48 405.88 971.5 394.97 928.31-140.7 738.2-200.17" stroke="rgba(239, 68, 68, 0.29)" stroke-width="2"></path><path d="M1995.69 926.9C1797.6 901.99 1694.83 542.72 1353.85 451.7 1012.87 360.68 1172.03-24.95 1032.93-105.54" stroke="rgba(239, 68, 68, 0.29)" stroke-width="2"></path><path d="M2203.05 288.84C1969.73 293.98 1774.13 614.6 1327.56 612.84 880.99 611.08 726.21-26.68 452.07-64.68" stroke="rgba(239, 68, 68, 0.29)" stroke-width="2"></path></g><defs><mask id="SvgjsMask1020"><rect width="1920" height="1080" fill="#ffffff"></rect></mask></defs></svg>