<svg xmlns="http://www.w3.org/2000/svg" version="1.1" xmlns:xlink="http://www.w3.org/1999/xlink" xmlns:svgjs="http://svgjs.com/svgjs" width="1920" height="1080" preserveAspectRatio="none" viewBox="0 0 1920 1080"><g mask="url(&quot;#SvgjsMask1011&quot;)" fill="none"><path d="M1836.18 201.25L1925.91 201.25L1925.91 290.98L1836.18 290.98z" stroke="#e73635"></path><path d="M726.36 880.08L829.12 880.08L829.12 982.84L726.36 982.84z" fill="#e73635"></path><path d="M212.95 105.37L237.61 105.37L237.61 130.03L212.95 130.03z" stroke="#e73635"></path><path d="M1853.59 337.99L1924.33 337.99L1924.33 429.62L1853.59 429.62z" fill="#e73635"></path><path d="M541.87 544.17L594.75 544.17L594.75 597.05L541.87 597.05z" fill="#d3b714"></path><path d="M-33.67 755.79 a84.49 84.49 0 1 0 168.98 0 a84.49 84.49 0 1 0 -168.98 0z" fill="#d3b714"></path><path d="M774.98 30.27 a35.04 35.04 0 1 0 70.08 0 a35.04 35.04 0 1 0 -70.08 0z" stroke="#037b0b"></path><path d="M1387.45 618.61a104.59 104.59 0 1 0 181.28 104.39z" fill="#037b0b"></path><path d="M174.3 75.93L200.46 75.93L200.46 106.14L174.3 106.14z" fill="#d3b714"></path><path d="M1766.23 546.17L1817.12 546.17L1817.12 634.17L1766.23 634.17z" fill="#d3b714"></path><path d="M910.16 1013.91L929.86 1013.91L929.86 1033.61L910.16 1033.61z" stroke="#e73635"></path><path d="M1861.55 831.87a107.99 107.99 0 1 0-211.76 42.46z" fill="#e73635"></path><path d="M938.2 1055.53 a35.05 35.05 0 1 0 70.1 0 a35.05 35.05 0 1 0 -70.1 0z" fill="#037b0b"></path><path d="M947.25 672.05 a55.93 55.93 0 1 0 111.86 0 a55.93 55.93 0 1 0 -111.86 0z" stroke="#e73635"></path><path d="M1787.59 354.41 a89.82 89.82 0 1 0 179.64 0 a89.82 89.82 0 1 0 -179.64 0z" stroke="#037b0b"></path><path d="M1367.41 983.05 a77.81 77.81 0 1 0 155.62 0 a77.81 77.81 0 1 0 -155.62 0z" fill="#d3b714"></path><path d="M889.22 555.99L946.52 555.99L946.52 634.89L889.22 634.89z" stroke="#037b0b"></path><path d="M1735.15 856.89L1840.15 856.89L1840.15 945.92L1735.15 945.92z" stroke="#e73635"></path><path d="M1467.46 538.77L1469.14 538.77L1469.14 552.26L1467.46 552.26z" stroke="#d3b714"></path><path d="M1127.45 180.97L1173.64 180.97L1173.64 227.16L1127.45 227.16z" fill="#e73635"></path><path d="M29.17 62.98 a50.3 50.3 0 1 0 100.6 0 a50.3 50.3 0 1 0 -100.6 0z" fill="#d3b714"></path><path d="M300.27 656.94L402.68 656.94L402.68 681.27L300.27 681.27z" stroke="#d3b714"></path><path d="M1223.22 842.71 a36.97 36.97 0 1 0 73.94 0 a36.97 36.97 0 1 0 -73.94 0z" fill="#037b0b"></path></g><defs><mask id="SvgjsMask1011"><rect width="1920" height="1080" fill="#ffffff"></rect></mask></defs></svg>