<svg xmlns="http://www.w3.org/2000/svg" version="1.1" xmlns:xlink="http://www.w3.org/1999/xlink" xmlns:svgjs="http://svgjs.com/svgjs" width="1920" height="1080" preserveAspectRatio="none" viewBox="0 0 1920 1080"><g mask="url(&quot;#SvgjsMask1040&quot;)" fill="none"><path d="M620.709,365.294C677.413,362.766,733.287,340.972,761.53,291.738C789.653,242.715,779.094,184.156,753.538,133.747C724.644,76.753,684.392,19.23,620.709,13.97C549.265,8.068,478.751,45.703,443.526,108.139C408.834,169.631,416.266,247.204,456.324,305.343C491.792,356.82,558.258,368.078,620.709,365.294" fill="rgba(239, 68, 68, 0.59)" class="triangle-float1"></path><path d="M1653.1329404172002 716.5705272833062L1423.2894934469393 786.8407209543316 1493.5596871179646 1016.6841679245924 1723.4031340882254 946.4139742535672z" fill="rgba(239, 68, 68, 0.59)" class="triangle-float3"></path><path d="M1541.918,602.711C1611.184,605.497,1681.133,580.565,1718.429,522.131C1758.515,459.326,1764.178,377.931,1726.36,313.735C1689.046,250.394,1615.338,218.775,1541.918,222.503C1474.531,225.925,1419.176,271.484,1387.295,330.951C1357.263,386.969,1356.97,453.611,1388.402,508.855C1420.192,564.728,1477.686,600.127,1541.918,602.711" fill="rgba(239, 68, 68, 0.59)" class="triangle-float1"></path><path d="M1443.773,514.953C1476.271,517.232,1513.184,517.315,1531.604,490.444C1551.805,460.974,1548.432,420.519,1529.107,390.467C1511.164,362.564,1476.91,352.294,1443.773,353.86C1413.521,355.29,1385.905,371.362,1371.354,397.924C1357.345,423.496,1359.626,454.664,1374.969,479.459C1389.524,502.98,1416.181,513.018,1443.773,514.953" fill="rgba(239, 68, 68, 0.59)" class="triangle-float3"></path><path d="M45.796,844.179C90.292,846.172,135.388,831.487,160.117,794.441C187.696,753.124,196.189,698.968,171.498,655.863C146.686,612.548,95.714,594.868,45.796,594.863C-4.132,594.858,-57.095,611.449,-79.949,655.839C-101.548,697.791,-78.263,745.693,-52.062,784.936C-29.369,818.926,4.968,842.35,45.796,844.179" fill="rgba(239, 68, 68, 0.59)" class="triangle-float1"></path><path d="M1075.4936823389683 940.1780870646197L1071.2131724847623 1172.7084285832134 1250.718649904058 1077.2636732044773z" fill="rgba(239, 68, 68, 0.59)" class="triangle-float2"></path><path d="M570.4421678186987 468.3825568744302L715.0189885361448 509.83929310283634 704.9156825200309 272.2456939124643z" fill="rgba(239, 68, 68, 0.59)" class="triangle-float3"></path><path d="M207.942,426.81C238.865,428.489,271.291,416.548,286.116,389.358C300.483,363.008,288.192,332.541,273.659,306.282C258.475,278.847,239.249,249.866,207.942,248.109C174.33,246.223,142.765,267.821,128.075,298.112C114.848,325.387,127.221,355.844,143.205,381.6C158.08,405.569,179.773,425.281,207.942,426.81" fill="rgba(239, 68, 68, 0.59)" class="triangle-float3"></path><path d="M681.0088256090617 302.48510379643903L876.1848504511559 257.4251679900667 831.1249146447835 62.2491431479726 635.9488898026893 107.3090789543449z" fill="rgba(239, 68, 68, 0.59)" class="triangle-float2"></path></g><defs><mask id="SvgjsMask1040"><rect width="1920" height="1080" fill="#ffffff"></rect></mask><style>
            @keyframes float1 {
                0%{transform: translate(0, 0)}
                50%{transform: translate(-10px, 0)}
                100%{transform: translate(0, 0)}
            }

            .triangle-float1 {
                animation: float1 5s infinite;
            }

            @keyframes float2 {
                0%{transform: translate(0, 0)}
                50%{transform: translate(-5px, -5px)}
                100%{transform: translate(0, 0)}
            }

            .triangle-float2 {
                animation: float2 4s infinite;
            }

            @keyframes float3 {
                0%{transform: translate(0, 0)}
                50%{transform: translate(0, -10px)}
                100%{transform: translate(0, 0)}
            }

            .triangle-float3 {
                animation: float3 6s infinite;
            }
        </style></defs></svg>