<svg xmlns="http://www.w3.org/2000/svg" version="1.1" xmlns:xlink="http://www.w3.org/1999/xlink" xmlns:svgjs="http://svgjs.com/svgjs" width="1920" height="1080" preserveAspectRatio="none" viewBox="0 0 1920 1080"><g mask="url(&quot;#SvgjsMask1016&quot;)" fill="none"><path d="M270 94.5C134.79 142.48 80.95 219.94 0 191.61C-54.05 172.69 -56.04 39.77 0 0C78.96 -56.04 135 0 270 0C405 0 540 -22.94 540 0C540 24.31 404.79 46.67 270 94.5" stroke="rgba(239, 68, 68, 0.34)" stroke-width="2"></path><path d="M810 171C686.1 73.56 540 46.35 540 0C540 -39.15 675 0 810 0C945 0 945 0 1080 0C1215 0 1215 0 1350 0C1485 0 1485 0 1620 0C1726.79 0 1770.41 -55.27 1833.58 0C1905.41 62.86 1859.2 236.25 1890 236.25C1921.16 236.25 1883.49 64.76 1957.5 0C2018.49 -53.37 2116.61 -57.86 2160 0C2217.86 77.14 2160 135 2160 270C2160 360.64 2180.9 367.69 2160 451.29C2147.15 502.69 2127.74 496.84 2092.5 540C1992.74 662.17 2012.11 750.1 1890 781.95C1775.86 811.73 1730.32 654.25 1620 663.26C1558.63 668.27 1546.63 739.81 1546.63 810C1546.63 862.81 1567.17 903.98 1620 909.26C1738.86 921.13 1753.64 869.35 1890 844.29C2023.64 819.72 2092.23 750.84 2160 810C2227.23 868.69 2227.5 1012.5 2160 1080C2092.5 1147.5 2025 1080 1890 1080C1755 1080 1755 1080 1620 1080C1485 1080 1485 1080 1350 1080C1236.6 1080 1179.67 1141.53 1123.2 1080C1055.77 1006.53 1049.89 917.61 1102.19 810C1163.29 684.3 1220.1 702.27 1350 613.37C1417.37 567.27 1496.74 578.82 1496.74 540C1496.74 499.95 1429.27 461.08 1350 455.63C1220.9 446.76 1215.53 486.45 1080 511.36C986.03 528.63 906.25 480.95 891 540C867.68 630.27 1025.4 698.53 1002.86 810C984.9 898.85 885.19 858.41 810 940.65C761.76 993.41 811.21 1051.51 756 1080C676.21 1121.18 648 1080 540 1080C409.09 1080 407.47 1083.92 278.18 1080C272.47 1079.83 275.48 1073.59 270 1071.82C136.39 1028.59 82.42 1069.92 0 990C-52.58 939.01 0 900 0 810C0 675 0 675 0 540C0 433.25 -58.42 356.8 0 326.51C76.58 286.8 134.78 399.13 270 400C404.78 400.87 414.92 305.08 540 330C684.92 358.88 712.98 524.55 810 507.6C884.65 494.55 883.33 382.54 883.33 270C883.33 214.24 857.76 208.56 810 171" stroke="rgba(239, 68, 68, 0.34)" stroke-width="2"></path><path d="M810 58.5C773.46 18.88 717.63 15.86 717.63 0C717.63 -13.39 763.82 0 810 0C945 0 945 0 1080 0C1215 0 1215 0 1350 0C1485 0 1485 0 1620 0C1676.42 0 1732.84 -32.03 1732.84 0C1732.84 62.47 1682.98 99.49 1620 189C1587.99 234.49 1588.66 239.08 1542.86 270C1453.66 330.21 1452.78 340.36 1350 371.25C1221.35 409.91 1195.6 439.62 1080 409.09C1003.93 389 1021.39 341.06 966.67 270C886.39 165.76 897.98 153.88 810 58.5" stroke="rgba(239, 68, 68, 0.34)" stroke-width="2"></path><path d="M2028 270C2001.92 157.09 2027.21 103.97 2078.04 0C2093.21 -31.03 2150.46 -31.44 2160 0C2191.44 103.56 2160 135 2160 270C2160 312.43 2183.16 354.86 2160 354.86C2117.16 354.86 2042.9 334.52 2028 270" stroke="rgba(239, 68, 68, 0.34)" stroke-width="2"></path><path d="M0 483.49C42.73 483.49 59.96 513.58 121.5 540C194.96 571.53 192.47 582.73 270 599.4C401.72 627.73 423.27 576.04 540 630C651.08 681.34 693.76 701.04 725.63 810C759.57 926.04 734.43 988.66 671.63 1080C641.61 1123.66 605.82 1080 540 1080C460.23 1080 448.67 1107.91 380.45 1080C313.67 1052.68 329.64 1019.71 270 969.55C169.12 884.71 143.49 905.95 59.4 810C8.49 751.92 16.88 738.22 0 661.5C-12.82 603.22 0 600.75 0 540C0 511.74 -18.02 483.49 0 483.49" stroke="rgba(239, 68, 68, 0.34)" stroke-width="2"></path><path d="M1642.5 540C1642.5 455.32 1780.54 362.69 1890 362.69C1968.86 362.69 2019.13 453.52 2019.13 540C2019.13 619.32 1966.88 694.29 1890 694.29C1778.56 694.29 1642.5 621.12 1642.5 540" stroke="rgba(239, 68, 68, 0.34)" stroke-width="2"></path><path d="M1194.66 810C1194.66 735.13 1275.87 686.74 1350 686.74C1415.17 686.74 1417.39 743.41 1473.26 810C1552.39 904.31 1521.61 975.14 1620 1008.53C1729.98 1045.86 1754.28 976.01 1890 951.43C2024.28 927.12 2076.66 871.06 2160 910.75C2211.66 935.35 2212.02 1047.39 2160 1080C2077.02 1132.02 2025 1080 1890 1080C1755 1080 1755 1080 1620 1080C1509.55 1080 1507.41 1089.42 1399.09 1080C1372.41 1077.68 1366.09 1077.76 1350 1056.52C1263.87 942.76 1194.66 920.02 1194.66 810" stroke="rgba(239, 68, 68, 0.34)" stroke-width="2"></path><path d="M1050 270C1050 220.27 1037.31 171.21 1080 164.35C1187.31 147.11 1225.14 178.13 1350 221.79C1376.21 230.95 1382.14 249.99 1382.14 270C1382.14 282.54 1367.86 284.7 1350 286.88C1216.79 303.11 1207.61 314 1080 306.82C1057.61 305.56 1050 291.51 1050 270" stroke="rgba(239, 68, 68, 0.34)" stroke-width="2"></path><path d="M1620 20.25C1606.78 20.25 1588.85 5.51 1588.85 0C1588.85 -4.62 1604.43 0 1620 0C1626.05 0 1632.09 -3.43 1632.09 0C1632.09 6.69 1628.4 20.25 1620 20.25" stroke="rgba(239, 68, 68, 0.34)" stroke-width="2"></path><path d="M1783.13 540C1783.13 503.43 1842.74 463.43 1890 463.43C1924.05 463.43 1945.76 502.66 1945.76 540C1945.76 574.25 1923.2 606.62 1890 606.62C1841.88 606.62 1783.13 575.03 1783.13 540" stroke="rgba(239, 68, 68, 0.34)" stroke-width="2"></path><path d="M194.4 810C194.4 774.8 223.4 734.4 270 734.4C372.37 734.4 492.35 776.41 492.35 810C492.35 842.84 375.43 867.27 270 867.27C226.45 867.27 194.4 841.23 194.4 810" stroke="rgba(239, 68, 68, 0.34)" stroke-width="2"></path><path d="M1287.12 810C1287.12 779.69 1319.99 760.11 1350 760.11C1376.38 760.11 1399.89 781.01 1399.89 810C1399.89 855.84 1377.41 909.78 1350 909.78C1321.02 909.78 1287.12 854.53 1287.12 810" stroke="rgba(239, 68, 68, 0.34)" stroke-width="2"></path><path d="M482.73 1080C482.73 991.02 513.74 857.65 540 857.65C566 857.65 587.25 987.96 587.25 1080C587.25 1099.13 563.63 1080 540 1080C511.37 1080 482.73 1102.19 482.73 1080" stroke="rgba(239, 68, 68, 0.34)" stroke-width="2"></path><path d="M1777.5 1080C1777.5 1074.59 1833.64 1068.67 1890 1058.57C2024.89 1034.41 2052 1002.92 2160 1011.49C2187 1013.63 2187.32 1073.07 2160 1080C2052.32 1107.32 2025 1080 1890 1080C1833.75 1080 1777.5 1085.31 1777.5 1080" stroke="rgba(239, 68, 68, 0.34)" stroke-width="2"></path></g><defs><mask id="SvgjsMask1016"><rect width="1920" height="1080" fill="#ffffff"></rect></mask></defs></svg>