<svg xmlns="http://www.w3.org/2000/svg" version="1.1" xmlns:xlink="http://www.w3.org/1999/xlink" xmlns:svgjs="http://svgjs.com/svgjs" width="1920" height="1080" preserveAspectRatio="none" viewBox="0 0 1920 1080"><g mask="url(&quot;#SvgjsMask1012&quot;)" fill="none"><path d="M89.59 325.99L154.55 363.49L154.55 438.49L89.59 475.99L24.64 438.49L24.64 363.49zM24.64 438.49L89.59 475.99L89.59 550.99L24.64 588.49L-40.31 550.99L-40.31 475.99zM24.64 663.49L89.59 700.99L89.59 775.99L24.64 813.49L-40.31 775.99L-40.31 700.99zM89.59 775.99L154.55 813.49L154.55 888.49L89.59 925.99L24.64 888.49L24.64 813.49zM154.55 -11.51L219.5 25.99L219.5 100.99L154.55 138.49L89.59 100.99L89.59 25.99zM219.5 100.99L284.45 138.49L284.45 213.49L219.5 250.99L154.55 213.49L154.55 138.49zM154.55 213.49L219.5 250.99L219.5 325.99L154.55 363.49L89.59 325.99L89.59 250.99zM219.5 325.99L284.45 363.49L284.45 438.49L219.5 475.99L154.55 438.49L154.55 363.49zM219.5 550.99L284.45 588.49L284.45 663.49L219.5 700.99L154.55 663.49L154.55 588.49zM154.55 888.49L219.5 925.99L219.5 1000.99L154.55 1038.49L89.59 1000.99L89.59 925.99zM219.5 1000.99L284.45 1038.49L284.45 1113.49L219.5 1150.99L154.55 1113.49L154.55 1038.49zM154.55 1113.49L219.5 1150.99L219.5 1225.99L154.55 1263.49L89.59 1225.99L89.59 1150.99zM284.45 213.49L349.41 250.99L349.41 325.99L284.45 363.49L219.5 325.99L219.5 250.99zM349.41 325.99L414.36 363.49L414.36 438.49L349.41 475.99L284.45 438.49L284.45 363.49zM284.45 438.49L349.41 475.99L349.41 550.99L284.45 588.49L219.5 550.99L219.5 475.99zM349.41 775.99L414.36 813.49L414.36 888.49L349.41 925.99L284.45 888.49L284.45 813.49zM284.45 888.49L349.41 925.99L349.41 1000.99L284.45 1038.49L219.5 1000.99L219.5 925.99zM414.36 438.49L479.32 475.99L479.32 550.99L414.36 588.49L349.41 550.99L349.41 475.99zM414.36 663.49L479.32 700.99L479.32 775.99L414.36 813.49L349.41 775.99L349.41 700.99zM479.32 1000.99L544.27 1038.49L544.27 1113.49L479.32 1150.99L414.36 1113.49L414.36 1038.49zM544.27 -11.51L609.22 25.99L609.22 100.99L544.27 138.49L479.32 100.99L479.32 25.99zM609.22 100.99L674.18 138.49L674.18 213.49L609.22 250.99L544.27 213.49L544.27 138.49zM544.27 888.49L609.22 925.99L609.22 1000.99L544.27 1038.49L479.32 1000.99L479.32 925.99zM674.18 213.49L739.13 250.99L739.13 325.99L674.18 363.49L609.22 325.99L609.22 250.99zM739.13 325.99L804.09 363.49L804.09 438.49L739.13 475.99L674.18 438.49L674.18 363.49zM739.13 775.99L804.09 813.49L804.09 888.49L739.13 925.99L674.18 888.49L674.18 813.49zM804.08 -11.51L869.04 25.99L869.04 100.99L804.08 138.49L739.13 100.99L739.13 25.99zM869.04 100.99L933.99 138.49L933.99 213.49L869.04 250.99L804.08 213.49L804.08 138.49zM804.08 213.49L869.04 250.99L869.04 325.99L804.08 363.49L739.13 325.99L739.13 250.99zM869.04 325.99L933.99 363.49L933.99 438.49L869.04 475.99L804.08 438.49L804.08 363.49zM804.08 663.49L869.04 700.99L869.04 775.99L804.08 813.49L739.13 775.99L739.13 700.99zM804.08 888.49L869.04 925.99L869.04 1000.99L804.08 1038.49L739.13 1000.99L739.13 925.99zM869.04 1000.99L933.99 1038.49L933.99 1113.49L869.04 1150.99L804.08 1113.49L804.08 1038.49zM998.95 325.99L1063.9 363.49L1063.9 438.49L998.95 475.99L933.99 438.49L933.99 363.49zM933.99 888.49L998.95 925.99L998.95 1000.99L933.99 1038.49L869.04 1000.99L869.04 925.99zM1128.85 325.99L1193.81 363.49L1193.81 438.49L1128.85 475.99L1063.9 438.49L1063.9 363.49zM1063.9 438.49L1128.85 475.99L1128.85 550.99L1063.9 588.49L998.95 550.99L998.95 475.99zM1128.85 550.99L1193.81 588.49L1193.81 663.49L1128.85 700.99L1063.9 663.49L1063.9 588.49zM1193.81 438.49L1258.76 475.99L1258.76 550.99L1193.81 588.49L1128.85 550.99L1128.85 475.99zM1258.76 550.99L1323.71 588.49L1323.71 663.49L1258.76 700.99L1193.81 663.49L1193.81 588.49zM1193.81 663.49L1258.76 700.99L1258.76 775.99L1193.81 813.49L1128.85 775.99L1128.85 700.99zM1193.81 888.49L1258.76 925.99L1258.76 1000.99L1193.81 1038.49L1128.85 1000.99L1128.85 925.99zM1193.81 1113.49L1258.76 1150.99L1258.76 1225.99L1193.81 1263.49L1128.85 1225.99L1128.85 1150.99zM1323.72 -11.51L1388.67 25.99L1388.67 100.99L1323.72 138.49L1258.76 100.99L1258.76 25.99zM1323.72 213.49L1388.67 250.99L1388.67 325.99L1323.72 363.49L1258.76 325.99L1258.76 250.99zM1323.72 438.49L1388.67 475.99L1388.67 550.99L1323.72 588.49L1258.76 550.99L1258.76 475.99zM1323.72 888.49L1388.67 925.99L1388.67 1000.99L1323.72 1038.49L1258.76 1000.99L1258.76 925.99zM1388.67 1000.99L1453.62 1038.49L1453.62 1113.49L1388.67 1150.99L1323.72 1113.49L1323.72 1038.49zM1453.62 -11.51L1518.58 25.99L1518.58 100.99L1453.62 138.49L1388.67 100.99L1388.67 25.99zM1453.62 213.49L1518.58 250.99L1518.58 325.99L1453.62 363.49L1388.67 325.99L1388.67 250.99zM1453.62 438.49L1518.58 475.99L1518.58 550.99L1453.62 588.49L1388.67 550.99L1388.67 475.99zM1453.62 663.49L1518.58 700.99L1518.58 775.99L1453.62 813.49L1388.67 775.99L1388.67 700.99zM1453.62 888.49L1518.58 925.99L1518.58 1000.99L1453.62 1038.49L1388.67 1000.99L1388.67 925.99zM1583.53 213.49L1648.48 250.99L1648.48 325.99L1583.53 363.49L1518.58 325.99L1518.58 250.99zM1648.48 325.99L1713.44 363.49L1713.44 438.49L1648.48 475.99L1583.53 438.49L1583.53 363.49zM1583.53 1113.49L1648.48 1150.99L1648.48 1225.99L1583.53 1263.49L1518.58 1225.99L1518.58 1150.99zM1713.44 -11.51L1778.39 25.99L1778.39 100.99L1713.44 138.49L1648.48 100.99L1648.48 25.99zM1778.39 100.99L1843.34 138.49L1843.34 213.49L1778.39 250.99L1713.44 213.49L1713.44 138.49zM1713.44 213.49L1778.39 250.99L1778.39 325.99L1713.44 363.49L1648.48 325.99L1648.48 250.99zM1778.39 550.99L1843.34 588.49L1843.34 663.49L1778.39 700.99L1713.44 663.49L1713.44 588.49zM1713.44 663.49L1778.39 700.99L1778.39 775.99L1713.44 813.49L1648.48 775.99L1648.48 700.99zM1778.39 1000.99L1843.34 1038.49L1843.34 1113.49L1778.39 1150.99L1713.44 1113.49L1713.44 1038.49zM1713.44 1113.49L1778.39 1150.99L1778.39 1225.99L1713.44 1263.49L1648.48 1225.99L1648.48 1150.99zM1908.3 100.99L1973.25 138.49L1973.25 213.49L1908.3 250.99L1843.35 213.49L1843.35 138.49zM1908.3 325.99L1973.25 363.49L1973.25 438.49L1908.3 475.99L1843.35 438.49L1843.35 363.49zM1843.35 438.49L1908.3 475.99L1908.3 550.99L1843.35 588.49L1778.39 550.99L1778.39 475.99zM1908.3 550.99L1973.25 588.49L1973.25 663.49L1908.3 700.99L1843.35 663.49L1843.35 588.49z" stroke="rgba(239, 68, 68, 0.54)" stroke-width="2"></path><path d="M82.09 325.99 a7.5 7.5 0 1 0 15 0 a7.5 7.5 0 1 0 -15 0zM147.05 363.49 a7.5 7.5 0 1 0 15 0 a7.5 7.5 0 1 0 -15 0zM147.05 438.49 a7.5 7.5 0 1 0 15 0 a7.5 7.5 0 1 0 -15 0zM82.09 475.99 a7.5 7.5 0 1 0 15 0 a7.5 7.5 0 1 0 -15 0zM17.14 438.49 a7.5 7.5 0 1 0 15 0 a7.5 7.5 0 1 0 -15 0zM17.14 363.49 a7.5 7.5 0 1 0 15 0 a7.5 7.5 0 1 0 -15 0zM82.09 550.99 a7.5 7.5 0 1 0 15 0 a7.5 7.5 0 1 0 -15 0zM17.14 588.49 a7.5 7.5 0 1 0 15 0 a7.5 7.5 0 1 0 -15 0zM-47.81 550.99 a7.5 7.5 0 1 0 15 0 a7.5 7.5 0 1 0 -15 0zM-47.81 475.99 a7.5 7.5 0 1 0 15 0 a7.5 7.5 0 1 0 -15 0zM17.14 663.49 a7.5 7.5 0 1 0 15 0 a7.5 7.5 0 1 0 -15 0zM82.09 700.99 a7.5 7.5 0 1 0 15 0 a7.5 7.5 0 1 0 -15 0zM82.09 775.99 a7.5 7.5 0 1 0 15 0 a7.5 7.5 0 1 0 -15 0zM17.14 813.49 a7.5 7.5 0 1 0 15 0 a7.5 7.5 0 1 0 -15 0zM-47.81 775.99 a7.5 7.5 0 1 0 15 0 a7.5 7.5 0 1 0 -15 0zM-47.81 700.99 a7.5 7.5 0 1 0 15 0 a7.5 7.5 0 1 0 -15 0zM147.05 813.49 a7.5 7.5 0 1 0 15 0 a7.5 7.5 0 1 0 -15 0zM147.05 888.49 a7.5 7.5 0 1 0 15 0 a7.5 7.5 0 1 0 -15 0zM82.09 925.99 a7.5 7.5 0 1 0 15 0 a7.5 7.5 0 1 0 -15 0zM17.14 888.49 a7.5 7.5 0 1 0 15 0 a7.5 7.5 0 1 0 -15 0zM147.05 -11.51 a7.5 7.5 0 1 0 15 0 a7.5 7.5 0 1 0 -15 0zM212 25.99 a7.5 7.5 0 1 0 15 0 a7.5 7.5 0 1 0 -15 0zM212 100.99 a7.5 7.5 0 1 0 15 0 a7.5 7.5 0 1 0 -15 0zM147.05 138.49 a7.5 7.5 0 1 0 15 0 a7.5 7.5 0 1 0 -15 0zM82.09 100.99 a7.5 7.5 0 1 0 15 0 a7.5 7.5 0 1 0 -15 0zM82.09 25.99 a7.5 7.5 0 1 0 15 0 a7.5 7.5 0 1 0 -15 0zM276.95 138.49 a7.5 7.5 0 1 0 15 0 a7.5 7.5 0 1 0 -15 0zM276.95 213.49 a7.5 7.5 0 1 0 15 0 a7.5 7.5 0 1 0 -15 0zM212 250.99 a7.5 7.5 0 1 0 15 0 a7.5 7.5 0 1 0 -15 0zM147.05 213.49 a7.5 7.5 0 1 0 15 0 a7.5 7.5 0 1 0 -15 0zM212 325.99 a7.5 7.5 0 1 0 15 0 a7.5 7.5 0 1 0 -15 0zM82.09 250.99 a7.5 7.5 0 1 0 15 0 a7.5 7.5 0 1 0 -15 0zM276.95 363.49 a7.5 7.5 0 1 0 15 0 a7.5 7.5 0 1 0 -15 0zM276.95 438.49 a7.5 7.5 0 1 0 15 0 a7.5 7.5 0 1 0 -15 0zM212 475.99 a7.5 7.5 0 1 0 15 0 a7.5 7.5 0 1 0 -15 0zM212 550.99 a7.5 7.5 0 1 0 15 0 a7.5 7.5 0 1 0 -15 0zM276.95 588.49 a7.5 7.5 0 1 0 15 0 a7.5 7.5 0 1 0 -15 0zM276.95 663.49 a7.5 7.5 0 1 0 15 0 a7.5 7.5 0 1 0 -15 0zM212 700.99 a7.5 7.5 0 1 0 15 0 a7.5 7.5 0 1 0 -15 0zM147.05 663.49 a7.5 7.5 0 1 0 15 0 a7.5 7.5 0 1 0 -15 0zM147.05 588.49 a7.5 7.5 0 1 0 15 0 a7.5 7.5 0 1 0 -15 0zM212 925.99 a7.5 7.5 0 1 0 15 0 a7.5 7.5 0 1 0 -15 0zM212 1000.99 a7.5 7.5 0 1 0 15 0 a7.5 7.5 0 1 0 -15 0zM147.05 1038.49 a7.5 7.5 0 1 0 15 0 a7.5 7.5 0 1 0 -15 0zM82.09 1000.99 a7.5 7.5 0 1 0 15 0 a7.5 7.5 0 1 0 -15 0zM276.95 1038.49 a7.5 7.5 0 1 0 15 0 a7.5 7.5 0 1 0 -15 0zM276.95 1113.49 a7.5 7.5 0 1 0 15 0 a7.5 7.5 0 1 0 -15 0zM212 1150.99 a7.5 7.5 0 1 0 15 0 a7.5 7.5 0 1 0 -15 0zM147.05 1113.49 a7.5 7.5 0 1 0 15 0 a7.5 7.5 0 1 0 -15 0zM212 1225.99 a7.5 7.5 0 1 0 15 0 a7.5 7.5 0 1 0 -15 0zM147.05 1263.49 a7.5 7.5 0 1 0 15 0 a7.5 7.5 0 1 0 -15 0zM82.09 1225.99 a7.5 7.5 0 1 0 15 0 a7.5 7.5 0 1 0 -15 0zM82.09 1150.99 a7.5 7.5 0 1 0 15 0 a7.5 7.5 0 1 0 -15 0zM341.91 250.99 a7.5 7.5 0 1 0 15 0 a7.5 7.5 0 1 0 -15 0zM341.91 325.99 a7.5 7.5 0 1 0 15 0 a7.5 7.5 0 1 0 -15 0zM406.86 363.49 a7.5 7.5 0 1 0 15 0 a7.5 7.5 0 1 0 -15 0zM406.86 438.49 a7.5 7.5 0 1 0 15 0 a7.5 7.5 0 1 0 -15 0zM341.91 475.99 a7.5 7.5 0 1 0 15 0 a7.5 7.5 0 1 0 -15 0zM341.91 550.99 a7.5 7.5 0 1 0 15 0 a7.5 7.5 0 1 0 -15 0zM341.91 775.99 a7.5 7.5 0 1 0 15 0 a7.5 7.5 0 1 0 -15 0zM406.86 813.49 a7.5 7.5 0 1 0 15 0 a7.5 7.5 0 1 0 -15 0zM406.86 888.49 a7.5 7.5 0 1 0 15 0 a7.5 7.5 0 1 0 -15 0zM341.91 925.99 a7.5 7.5 0 1 0 15 0 a7.5 7.5 0 1 0 -15 0zM276.95 888.49 a7.5 7.5 0 1 0 15 0 a7.5 7.5 0 1 0 -15 0zM276.95 813.49 a7.5 7.5 0 1 0 15 0 a7.5 7.5 0 1 0 -15 0zM341.91 1000.99 a7.5 7.5 0 1 0 15 0 a7.5 7.5 0 1 0 -15 0zM471.82 475.99 a7.5 7.5 0 1 0 15 0 a7.5 7.5 0 1 0 -15 0zM471.82 550.99 a7.5 7.5 0 1 0 15 0 a7.5 7.5 0 1 0 -15 0zM406.86 588.49 a7.5 7.5 0 1 0 15 0 a7.5 7.5 0 1 0 -15 0zM406.86 663.49 a7.5 7.5 0 1 0 15 0 a7.5 7.5 0 1 0 -15 0zM471.82 700.99 a7.5 7.5 0 1 0 15 0 a7.5 7.5 0 1 0 -15 0zM471.82 775.99 a7.5 7.5 0 1 0 15 0 a7.5 7.5 0 1 0 -15 0zM341.91 700.99 a7.5 7.5 0 1 0 15 0 a7.5 7.5 0 1 0 -15 0zM471.82 1000.99 a7.5 7.5 0 1 0 15 0 a7.5 7.5 0 1 0 -15 0zM536.77 1038.49 a7.5 7.5 0 1 0 15 0 a7.5 7.5 0 1 0 -15 0zM536.77 1113.49 a7.5 7.5 0 1 0 15 0 a7.5 7.5 0 1 0 -15 0zM471.82 1150.99 a7.5 7.5 0 1 0 15 0 a7.5 7.5 0 1 0 -15 0zM406.86 1113.49 a7.5 7.5 0 1 0 15 0 a7.5 7.5 0 1 0 -15 0zM406.86 1038.49 a7.5 7.5 0 1 0 15 0 a7.5 7.5 0 1 0 -15 0zM536.77 -11.51 a7.5 7.5 0 1 0 15 0 a7.5 7.5 0 1 0 -15 0zM601.72 25.99 a7.5 7.5 0 1 0 15 0 a7.5 7.5 0 1 0 -15 0zM601.72 100.99 a7.5 7.5 0 1 0 15 0 a7.5 7.5 0 1 0 -15 0zM536.77 138.49 a7.5 7.5 0 1 0 15 0 a7.5 7.5 0 1 0 -15 0zM471.82 100.99 a7.5 7.5 0 1 0 15 0 a7.5 7.5 0 1 0 -15 0zM471.82 25.99 a7.5 7.5 0 1 0 15 0 a7.5 7.5 0 1 0 -15 0zM666.68 138.49 a7.5 7.5 0 1 0 15 0 a7.5 7.5 0 1 0 -15 0zM666.68 213.49 a7.5 7.5 0 1 0 15 0 a7.5 7.5 0 1 0 -15 0zM601.72 250.99 a7.5 7.5 0 1 0 15 0 a7.5 7.5 0 1 0 -15 0zM536.77 213.49 a7.5 7.5 0 1 0 15 0 a7.5 7.5 0 1 0 -15 0zM536.77 888.49 a7.5 7.5 0 1 0 15 0 a7.5 7.5 0 1 0 -15 0zM601.72 925.99 a7.5 7.5 0 1 0 15 0 a7.5 7.5 0 1 0 -15 0zM601.72 1000.99 a7.5 7.5 0 1 0 15 0 a7.5 7.5 0 1 0 -15 0zM471.82 925.99 a7.5 7.5 0 1 0 15 0 a7.5 7.5 0 1 0 -15 0zM731.63 250.99 a7.5 7.5 0 1 0 15 0 a7.5 7.5 0 1 0 -15 0zM731.63 325.99 a7.5 7.5 0 1 0 15 0 a7.5 7.5 0 1 0 -15 0zM666.68 363.49 a7.5 7.5 0 1 0 15 0 a7.5 7.5 0 1 0 -15 0zM601.72 325.99 a7.5 7.5 0 1 0 15 0 a7.5 7.5 0 1 0 -15 0zM796.59 363.49 a7.5 7.5 0 1 0 15 0 a7.5 7.5 0 1 0 -15 0zM796.59 438.49 a7.5 7.5 0 1 0 15 0 a7.5 7.5 0 1 0 -15 0zM731.63 475.99 a7.5 7.5 0 1 0 15 0 a7.5 7.5 0 1 0 -15 0zM666.68 438.49 a7.5 7.5 0 1 0 15 0 a7.5 7.5 0 1 0 -15 0zM731.63 775.99 a7.5 7.5 0 1 0 15 0 a7.5 7.5 0 1 0 -15 0zM796.59 813.49 a7.5 7.5 0 1 0 15 0 a7.5 7.5 0 1 0 -15 0zM796.59 888.49 a7.5 7.5 0 1 0 15 0 a7.5 7.5 0 1 0 -15 0zM731.63 925.99 a7.5 7.5 0 1 0 15 0 a7.5 7.5 0 1 0 -15 0zM666.68 888.49 a7.5 7.5 0 1 0 15 0 a7.5 7.5 0 1 0 -15 0zM666.68 813.49 a7.5 7.5 0 1 0 15 0 a7.5 7.5 0 1 0 -15 0zM796.58 -11.51 a7.5 7.5 0 1 0 15 0 a7.5 7.5 0 1 0 -15 0zM861.54 25.99 a7.5 7.5 0 1 0 15 0 a7.5 7.5 0 1 0 -15 0zM861.54 100.99 a7.5 7.5 0 1 0 15 0 a7.5 7.5 0 1 0 -15 0zM796.58 138.49 a7.5 7.5 0 1 0 15 0 a7.5 7.5 0 1 0 -15 0zM731.63 100.99 a7.5 7.5 0 1 0 15 0 a7.5 7.5 0 1 0 -15 0zM731.63 25.99 a7.5 7.5 0 1 0 15 0 a7.5 7.5 0 1 0 -15 0zM926.49 138.49 a7.5 7.5 0 1 0 15 0 a7.5 7.5 0 1 0 -15 0zM926.49 213.49 a7.5 7.5 0 1 0 15 0 a7.5 7.5 0 1 0 -15 0zM861.54 250.99 a7.5 7.5 0 1 0 15 0 a7.5 7.5 0 1 0 -15 0zM796.58 213.49 a7.5 7.5 0 1 0 15 0 a7.5 7.5 0 1 0 -15 0zM861.54 325.99 a7.5 7.5 0 1 0 15 0 a7.5 7.5 0 1 0 -15 0zM796.58 363.49 a7.5 7.5 0 1 0 15 0 a7.5 7.5 0 1 0 -15 0zM926.49 363.49 a7.5 7.5 0 1 0 15 0 a7.5 7.5 0 1 0 -15 0zM926.49 438.49 a7.5 7.5 0 1 0 15 0 a7.5 7.5 0 1 0 -15 0zM861.54 475.99 a7.5 7.5 0 1 0 15 0 a7.5 7.5 0 1 0 -15 0zM796.58 438.49 a7.5 7.5 0 1 0 15 0 a7.5 7.5 0 1 0 -15 0zM796.58 663.49 a7.5 7.5 0 1 0 15 0 a7.5 7.5 0 1 0 -15 0zM861.54 700.99 a7.5 7.5 0 1 0 15 0 a7.5 7.5 0 1 0 -15 0zM861.54 775.99 a7.5 7.5 0 1 0 15 0 a7.5 7.5 0 1 0 -15 0zM796.58 813.49 a7.5 7.5 0 1 0 15 0 a7.5 7.5 0 1 0 -15 0zM731.63 700.99 a7.5 7.5 0 1 0 15 0 a7.5 7.5 0 1 0 -15 0zM796.58 888.49 a7.5 7.5 0 1 0 15 0 a7.5 7.5 0 1 0 -15 0zM861.54 925.99 a7.5 7.5 0 1 0 15 0 a7.5 7.5 0 1 0 -15 0zM861.54 1000.99 a7.5 7.5 0 1 0 15 0 a7.5 7.5 0 1 0 -15 0zM796.58 1038.49 a7.5 7.5 0 1 0 15 0 a7.5 7.5 0 1 0 -15 0zM731.63 1000.99 a7.5 7.5 0 1 0 15 0 a7.5 7.5 0 1 0 -15 0zM926.49 1038.49 a7.5 7.5 0 1 0 15 0 a7.5 7.5 0 1 0 -15 0zM926.49 1113.49 a7.5 7.5 0 1 0 15 0 a7.5 7.5 0 1 0 -15 0zM861.54 1150.99 a7.5 7.5 0 1 0 15 0 a7.5 7.5 0 1 0 -15 0zM796.58 1113.49 a7.5 7.5 0 1 0 15 0 a7.5 7.5 0 1 0 -15 0zM991.45 325.99 a7.5 7.5 0 1 0 15 0 a7.5 7.5 0 1 0 -15 0zM1056.4 363.49 a7.5 7.5 0 1 0 15 0 a7.5 7.5 0 1 0 -15 0zM1056.4 438.49 a7.5 7.5 0 1 0 15 0 a7.5 7.5 0 1 0 -15 0zM991.45 475.99 a7.5 7.5 0 1 0 15 0 a7.5 7.5 0 1 0 -15 0zM926.49 888.49 a7.5 7.5 0 1 0 15 0 a7.5 7.5 0 1 0 -15 0zM991.45 925.99 a7.5 7.5 0 1 0 15 0 a7.5 7.5 0 1 0 -15 0zM991.45 1000.99 a7.5 7.5 0 1 0 15 0 a7.5 7.5 0 1 0 -15 0zM1121.35 325.99 a7.5 7.5 0 1 0 15 0 a7.5 7.5 0 1 0 -15 0zM1186.31 363.49 a7.5 7.5 0 1 0 15 0 a7.5 7.5 0 1 0 -15 0zM1186.31 438.49 a7.5 7.5 0 1 0 15 0 a7.5 7.5 0 1 0 -15 0zM1121.35 475.99 a7.5 7.5 0 1 0 15 0 a7.5 7.5 0 1 0 -15 0zM1121.35 550.99 a7.5 7.5 0 1 0 15 0 a7.5 7.5 0 1 0 -15 0zM1056.4 588.49 a7.5 7.5 0 1 0 15 0 a7.5 7.5 0 1 0 -15 0zM991.45 550.99 a7.5 7.5 0 1 0 15 0 a7.5 7.5 0 1 0 -15 0zM1186.31 588.49 a7.5 7.5 0 1 0 15 0 a7.5 7.5 0 1 0 -15 0zM1186.31 663.49 a7.5 7.5 0 1 0 15 0 a7.5 7.5 0 1 0 -15 0zM1121.35 700.99 a7.5 7.5 0 1 0 15 0 a7.5 7.5 0 1 0 -15 0zM1056.4 663.49 a7.5 7.5 0 1 0 15 0 a7.5 7.5 0 1 0 -15 0zM1251.26 475.99 a7.5 7.5 0 1 0 15 0 a7.5 7.5 0 1 0 -15 0zM1251.26 550.99 a7.5 7.5 0 1 0 15 0 a7.5 7.5 0 1 0 -15 0zM1316.21 588.49 a7.5 7.5 0 1 0 15 0 a7.5 7.5 0 1 0 -15 0zM1316.21 663.49 a7.5 7.5 0 1 0 15 0 a7.5 7.5 0 1 0 -15 0zM1251.26 700.99 a7.5 7.5 0 1 0 15 0 a7.5 7.5 0 1 0 -15 0zM1251.26 775.99 a7.5 7.5 0 1 0 15 0 a7.5 7.5 0 1 0 -15 0zM1186.31 813.49 a7.5 7.5 0 1 0 15 0 a7.5 7.5 0 1 0 -15 0zM1121.35 775.99 a7.5 7.5 0 1 0 15 0 a7.5 7.5 0 1 0 -15 0zM1186.31 888.49 a7.5 7.5 0 1 0 15 0 a7.5 7.5 0 1 0 -15 0zM1251.26 925.99 a7.5 7.5 0 1 0 15 0 a7.5 7.5 0 1 0 -15 0zM1251.26 1000.99 a7.5 7.5 0 1 0 15 0 a7.5 7.5 0 1 0 -15 0zM1186.31 1038.49 a7.5 7.5 0 1 0 15 0 a7.5 7.5 0 1 0 -15 0zM1121.35 1000.99 a7.5 7.5 0 1 0 15 0 a7.5 7.5 0 1 0 -15 0zM1121.35 925.99 a7.5 7.5 0 1 0 15 0 a7.5 7.5 0 1 0 -15 0zM1186.31 1113.49 a7.5 7.5 0 1 0 15 0 a7.5 7.5 0 1 0 -15 0zM1251.26 1150.99 a7.5 7.5 0 1 0 15 0 a7.5 7.5 0 1 0 -15 0zM1251.26 1225.99 a7.5 7.5 0 1 0 15 0 a7.5 7.5 0 1 0 -15 0zM1186.31 1263.49 a7.5 7.5 0 1 0 15 0 a7.5 7.5 0 1 0 -15 0zM1121.35 1225.99 a7.5 7.5 0 1 0 15 0 a7.5 7.5 0 1 0 -15 0zM1121.35 1150.99 a7.5 7.5 0 1 0 15 0 a7.5 7.5 0 1 0 -15 0zM1316.22 -11.51 a7.5 7.5 0 1 0 15 0 a7.5 7.5 0 1 0 -15 0zM1381.17 25.99 a7.5 7.5 0 1 0 15 0 a7.5 7.5 0 1 0 -15 0zM1381.17 100.99 a7.5 7.5 0 1 0 15 0 a7.5 7.5 0 1 0 -15 0zM1316.22 138.49 a7.5 7.5 0 1 0 15 0 a7.5 7.5 0 1 0 -15 0zM1251.26 100.99 a7.5 7.5 0 1 0 15 0 a7.5 7.5 0 1 0 -15 0zM1251.26 25.99 a7.5 7.5 0 1 0 15 0 a7.5 7.5 0 1 0 -15 0zM1316.22 213.49 a7.5 7.5 0 1 0 15 0 a7.5 7.5 0 1 0 -15 0zM1381.17 250.99 a7.5 7.5 0 1 0 15 0 a7.5 7.5 0 1 0 -15 0zM1381.17 325.99 a7.5 7.5 0 1 0 15 0 a7.5 7.5 0 1 0 -15 0zM1316.22 363.49 a7.5 7.5 0 1 0 15 0 a7.5 7.5 0 1 0 -15 0zM1251.26 325.99 a7.5 7.5 0 1 0 15 0 a7.5 7.5 0 1 0 -15 0zM1251.26 250.99 a7.5 7.5 0 1 0 15 0 a7.5 7.5 0 1 0 -15 0zM1316.22 438.49 a7.5 7.5 0 1 0 15 0 a7.5 7.5 0 1 0 -15 0zM1381.17 475.99 a7.5 7.5 0 1 0 15 0 a7.5 7.5 0 1 0 -15 0zM1381.17 550.99 a7.5 7.5 0 1 0 15 0 a7.5 7.5 0 1 0 -15 0zM1316.22 588.49 a7.5 7.5 0 1 0 15 0 a7.5 7.5 0 1 0 -15 0zM1316.22 888.49 a7.5 7.5 0 1 0 15 0 a7.5 7.5 0 1 0 -15 0zM1381.17 925.99 a7.5 7.5 0 1 0 15 0 a7.5 7.5 0 1 0 -15 0zM1381.17 1000.99 a7.5 7.5 0 1 0 15 0 a7.5 7.5 0 1 0 -15 0zM1316.22 1038.49 a7.5 7.5 0 1 0 15 0 a7.5 7.5 0 1 0 -15 0zM1446.12 1038.49 a7.5 7.5 0 1 0 15 0 a7.5 7.5 0 1 0 -15 0zM1446.12 1113.49 a7.5 7.5 0 1 0 15 0 a7.5 7.5 0 1 0 -15 0zM1381.17 1150.99 a7.5 7.5 0 1 0 15 0 a7.5 7.5 0 1 0 -15 0zM1316.22 1113.49 a7.5 7.5 0 1 0 15 0 a7.5 7.5 0 1 0 -15 0zM1446.12 -11.51 a7.5 7.5 0 1 0 15 0 a7.5 7.5 0 1 0 -15 0zM1511.08 25.99 a7.5 7.5 0 1 0 15 0 a7.5 7.5 0 1 0 -15 0zM1511.08 100.99 a7.5 7.5 0 1 0 15 0 a7.5 7.5 0 1 0 -15 0zM1446.12 138.49 a7.5 7.5 0 1 0 15 0 a7.5 7.5 0 1 0 -15 0zM1446.12 213.49 a7.5 7.5 0 1 0 15 0 a7.5 7.5 0 1 0 -15 0zM1511.08 250.99 a7.5 7.5 0 1 0 15 0 a7.5 7.5 0 1 0 -15 0zM1511.08 325.99 a7.5 7.5 0 1 0 15 0 a7.5 7.5 0 1 0 -15 0zM1446.12 363.49 a7.5 7.5 0 1 0 15 0 a7.5 7.5 0 1 0 -15 0zM1446.12 438.49 a7.5 7.5 0 1 0 15 0 a7.5 7.5 0 1 0 -15 0zM1511.08 475.99 a7.5 7.5 0 1 0 15 0 a7.5 7.5 0 1 0 -15 0zM1511.08 550.99 a7.5 7.5 0 1 0 15 0 a7.5 7.5 0 1 0 -15 0zM1446.12 588.49 a7.5 7.5 0 1 0 15 0 a7.5 7.5 0 1 0 -15 0zM1446.12 663.49 a7.5 7.5 0 1 0 15 0 a7.5 7.5 0 1 0 -15 0zM1511.08 700.99 a7.5 7.5 0 1 0 15 0 a7.5 7.5 0 1 0 -15 0zM1511.08 775.99 a7.5 7.5 0 1 0 15 0 a7.5 7.5 0 1 0 -15 0zM1446.12 813.49 a7.5 7.5 0 1 0 15 0 a7.5 7.5 0 1 0 -15 0zM1381.17 775.99 a7.5 7.5 0 1 0 15 0 a7.5 7.5 0 1 0 -15 0zM1381.17 700.99 a7.5 7.5 0 1 0 15 0 a7.5 7.5 0 1 0 -15 0zM1446.12 888.49 a7.5 7.5 0 1 0 15 0 a7.5 7.5 0 1 0 -15 0zM1511.08 925.99 a7.5 7.5 0 1 0 15 0 a7.5 7.5 0 1 0 -15 0zM1511.08 1000.99 a7.5 7.5 0 1 0 15 0 a7.5 7.5 0 1 0 -15 0zM1576.03 213.49 a7.5 7.5 0 1 0 15 0 a7.5 7.5 0 1 0 -15 0zM1640.98 250.99 a7.5 7.5 0 1 0 15 0 a7.5 7.5 0 1 0 -15 0zM1640.98 325.99 a7.5 7.5 0 1 0 15 0 a7.5 7.5 0 1 0 -15 0zM1576.03 363.49 a7.5 7.5 0 1 0 15 0 a7.5 7.5 0 1 0 -15 0zM1705.94 363.49 a7.5 7.5 0 1 0 15 0 a7.5 7.5 0 1 0 -15 0zM1705.94 438.49 a7.5 7.5 0 1 0 15 0 a7.5 7.5 0 1 0 -15 0zM1640.98 475.99 a7.5 7.5 0 1 0 15 0 a7.5 7.5 0 1 0 -15 0zM1576.03 438.49 a7.5 7.5 0 1 0 15 0 a7.5 7.5 0 1 0 -15 0zM1576.03 1113.49 a7.5 7.5 0 1 0 15 0 a7.5 7.5 0 1 0 -15 0zM1640.98 1150.99 a7.5 7.5 0 1 0 15 0 a7.5 7.5 0 1 0 -15 0zM1640.98 1225.99 a7.5 7.5 0 1 0 15 0 a7.5 7.5 0 1 0 -15 0zM1576.03 1263.49 a7.5 7.5 0 1 0 15 0 a7.5 7.5 0 1 0 -15 0zM1511.08 1225.99 a7.5 7.5 0 1 0 15 0 a7.5 7.5 0 1 0 -15 0zM1511.08 1150.99 a7.5 7.5 0 1 0 15 0 a7.5 7.5 0 1 0 -15 0zM1705.94 -11.51 a7.5 7.5 0 1 0 15 0 a7.5 7.5 0 1 0 -15 0zM1770.89 25.99 a7.5 7.5 0 1 0 15 0 a7.5 7.5 0 1 0 -15 0zM1770.89 100.99 a7.5 7.5 0 1 0 15 0 a7.5 7.5 0 1 0 -15 0zM1705.94 138.49 a7.5 7.5 0 1 0 15 0 a7.5 7.5 0 1 0 -15 0zM1640.98 100.99 a7.5 7.5 0 1 0 15 0 a7.5 7.5 0 1 0 -15 0zM1640.98 25.99 a7.5 7.5 0 1 0 15 0 a7.5 7.5 0 1 0 -15 0zM1835.84 138.49 a7.5 7.5 0 1 0 15 0 a7.5 7.5 0 1 0 -15 0zM1835.84 213.49 a7.5 7.5 0 1 0 15 0 a7.5 7.5 0 1 0 -15 0zM1770.89 250.99 a7.5 7.5 0 1 0 15 0 a7.5 7.5 0 1 0 -15 0zM1705.94 213.49 a7.5 7.5 0 1 0 15 0 a7.5 7.5 0 1 0 -15 0zM1770.89 325.99 a7.5 7.5 0 1 0 15 0 a7.5 7.5 0 1 0 -15 0zM1770.89 550.99 a7.5 7.5 0 1 0 15 0 a7.5 7.5 0 1 0 -15 0zM1835.84 588.49 a7.5 7.5 0 1 0 15 0 a7.5 7.5 0 1 0 -15 0zM1835.84 663.49 a7.5 7.5 0 1 0 15 0 a7.5 7.5 0 1 0 -15 0zM1770.89 700.99 a7.5 7.5 0 1 0 15 0 a7.5 7.5 0 1 0 -15 0zM1705.94 663.49 a7.5 7.5 0 1 0 15 0 a7.5 7.5 0 1 0 -15 0zM1705.94 588.49 a7.5 7.5 0 1 0 15 0 a7.5 7.5 0 1 0 -15 0zM1770.89 775.99 a7.5 7.5 0 1 0 15 0 a7.5 7.5 0 1 0 -15 0zM1705.94 813.49 a7.5 7.5 0 1 0 15 0 a7.5 7.5 0 1 0 -15 0zM1640.98 775.99 a7.5 7.5 0 1 0 15 0 a7.5 7.5 0 1 0 -15 0zM1640.98 700.99 a7.5 7.5 0 1 0 15 0 a7.5 7.5 0 1 0 -15 0zM1770.89 1000.99 a7.5 7.5 0 1 0 15 0 a7.5 7.5 0 1 0 -15 0zM1835.84 1038.49 a7.5 7.5 0 1 0 15 0 a7.5 7.5 0 1 0 -15 0zM1835.84 1113.49 a7.5 7.5 0 1 0 15 0 a7.5 7.5 0 1 0 -15 0zM1770.89 1150.99 a7.5 7.5 0 1 0 15 0 a7.5 7.5 0 1 0 -15 0zM1705.94 1113.49 a7.5 7.5 0 1 0 15 0 a7.5 7.5 0 1 0 -15 0zM1705.94 1038.49 a7.5 7.5 0 1 0 15 0 a7.5 7.5 0 1 0 -15 0zM1770.89 1225.99 a7.5 7.5 0 1 0 15 0 a7.5 7.5 0 1 0 -15 0zM1705.94 1263.49 a7.5 7.5 0 1 0 15 0 a7.5 7.5 0 1 0 -15 0zM1900.8 100.99 a7.5 7.5 0 1 0 15 0 a7.5 7.5 0 1 0 -15 0zM1965.75 138.49 a7.5 7.5 0 1 0 15 0 a7.5 7.5 0 1 0 -15 0zM1965.75 213.49 a7.5 7.5 0 1 0 15 0 a7.5 7.5 0 1 0 -15 0zM1900.8 250.99 a7.5 7.5 0 1 0 15 0 a7.5 7.5 0 1 0 -15 0zM1835.85 213.49 a7.5 7.5 0 1 0 15 0 a7.5 7.5 0 1 0 -15 0zM1835.85 138.49 a7.5 7.5 0 1 0 15 0 a7.5 7.5 0 1 0 -15 0zM1900.8 325.99 a7.5 7.5 0 1 0 15 0 a7.5 7.5 0 1 0 -15 0zM1965.75 363.49 a7.5 7.5 0 1 0 15 0 a7.5 7.5 0 1 0 -15 0zM1965.75 438.49 a7.5 7.5 0 1 0 15 0 a7.5 7.5 0 1 0 -15 0zM1900.8 475.99 a7.5 7.5 0 1 0 15 0 a7.5 7.5 0 1 0 -15 0zM1835.85 438.49 a7.5 7.5 0 1 0 15 0 a7.5 7.5 0 1 0 -15 0zM1835.85 363.49 a7.5 7.5 0 1 0 15 0 a7.5 7.5 0 1 0 -15 0zM1900.8 550.99 a7.5 7.5 0 1 0 15 0 a7.5 7.5 0 1 0 -15 0zM1835.85 588.49 a7.5 7.5 0 1 0 15 0 a7.5 7.5 0 1 0 -15 0zM1770.89 475.99 a7.5 7.5 0 1 0 15 0 a7.5 7.5 0 1 0 -15 0zM1965.75 588.49 a7.5 7.5 0 1 0 15 0 a7.5 7.5 0 1 0 -15 0zM1965.75 663.49 a7.5 7.5 0 1 0 15 0 a7.5 7.5 0 1 0 -15 0zM1900.8 700.99 a7.5 7.5 0 1 0 15 0 a7.5 7.5 0 1 0 -15 0zM1835.85 663.49 a7.5 7.5 0 1 0 15 0 a7.5 7.5 0 1 0 -15 0z" fill="rgba(239, 68, 68, 0.54)"></path><path d="M76.05 38.97L119.36 63.97L119.36 113.97L76.05 138.97L32.75 113.97L32.75 63.97zM76.05 188.97L119.36 213.97L119.36 263.97L76.05 288.97L32.75 263.97L32.75 213.97zM32.75 413.97L76.05 438.97L76.05 488.97L32.75 513.97L-10.55 488.97L-10.55 438.97zM32.75 1013.97L76.05 1038.97L76.05 1088.97L32.75 1113.97L-10.55 1088.97L-10.55 1038.97zM119.36 -36.03L162.66 -11.03L162.66 38.97L119.36 63.97L76.05 38.97L76.05 -11.03zM119.36 113.97L162.66 138.97L162.66 188.97L119.36 213.97L76.05 188.97L76.05 138.97zM119.36 413.97L162.66 438.97L162.66 488.97L119.36 513.97L76.05 488.97L76.05 438.97zM162.66 488.97L205.96 513.97L205.96 563.97L162.66 588.97L119.36 563.97L119.36 513.97zM119.36 713.97L162.66 738.97L162.66 788.97L119.36 813.97L76.05 788.97L76.05 738.97zM119.36 863.97L162.66 888.97L162.66 938.97L119.36 963.97L76.05 938.97L76.05 888.97zM162.66 938.97L205.96 963.97L205.96 1013.97L162.66 1038.97L119.36 1013.97L119.36 963.97zM249.26 38.97L292.56 63.97L292.56 113.97L249.26 138.97L205.96 113.97L205.96 63.97zM205.96 413.97L249.26 438.97L249.26 488.97L205.96 513.97L162.66 488.97L162.66 438.97zM249.26 638.97L292.56 663.97L292.56 713.97L249.26 738.97L205.96 713.97L205.96 663.97zM205.96 713.97L249.26 738.97L249.26 788.97L205.96 813.97L162.66 788.97L162.66 738.97zM249.26 788.97L292.56 813.97L292.56 863.97L249.26 888.97L205.96 863.97L205.96 813.97zM205.96 863.97L249.26 888.97L249.26 938.97L205.96 963.97L162.66 938.97L162.66 888.97zM249.26 938.97L292.56 963.97L292.56 1013.97L249.26 1038.97L205.96 1013.97L205.96 963.97zM205.96 1013.97L249.26 1038.97L249.26 1088.97L205.96 1113.97L162.66 1088.97L162.66 1038.97zM292.56 263.97L335.87 288.97L335.87 338.97L292.56 363.97L249.26 338.97L249.26 288.97zM335.87 488.97L379.17 513.97L379.17 563.97L335.87 588.97L292.56 563.97L292.56 513.97zM335.87 788.97L379.17 813.97L379.17 863.97L335.87 888.97L292.56 863.97L292.56 813.97zM292.56 863.97L335.87 888.97L335.87 938.97L292.56 963.97L249.26 938.97L249.26 888.97zM335.87 938.97L379.17 963.97L379.17 1013.97L335.87 1038.97L292.56 1013.97L292.56 963.97zM422.47 338.97L465.78 363.97L465.78 413.97L422.47 438.97L379.17 413.97L379.17 363.97zM379.17 413.97L422.47 438.97L422.47 488.97L379.17 513.97L335.87 488.97L335.87 438.97zM379.17 863.97L422.47 888.97L422.47 938.97L379.17 963.97L335.87 938.97L335.87 888.97zM509.08 38.97L552.38 63.97L552.38 113.97L509.08 138.97L465.78 113.97L465.78 63.97zM465.78 263.97L509.08 288.97L509.08 338.97L465.78 363.97L422.47 338.97L422.47 288.97zM509.08 338.97L552.38 363.97L552.38 413.97L509.08 438.97L465.78 413.97L465.78 363.97zM465.78 413.97L509.08 438.97L509.08 488.97L465.78 513.97L422.47 488.97L422.47 438.97zM509.08 488.97L552.38 513.97L552.38 563.97L509.08 588.97L465.78 563.97L465.78 513.97zM509.08 638.97L552.38 663.97L552.38 713.97L509.08 738.97L465.78 713.97L465.78 663.97zM509.08 788.97L552.38 813.97L552.38 863.97L509.08 888.97L465.78 863.97L465.78 813.97zM465.78 1013.97L509.08 1038.97L509.08 1088.97L465.78 1113.97L422.47 1088.97L422.47 1038.97zM552.38 -36.03L595.68 -11.03L595.68 38.97L552.38 63.97L509.08 38.97L509.08 -11.03zM595.68 188.97L638.99 213.97L638.99 263.97L595.68 288.97L552.38 263.97L552.38 213.97zM595.68 338.97L638.99 363.97L638.99 413.97L595.68 438.97L552.38 413.97L552.38 363.97zM552.38 413.97L595.68 438.97L595.68 488.97L552.38 513.97L509.08 488.97L509.08 438.97zM552.38 563.97L595.68 588.97L595.68 638.97L552.38 663.97L509.08 638.97L509.08 588.97zM552.38 713.97L595.68 738.97L595.68 788.97L552.38 813.97L509.08 788.97L509.08 738.97zM552.38 863.97L595.68 888.97L595.68 938.97L552.38 963.97L509.08 938.97L509.08 888.97zM595.68 938.97L638.99 963.97L638.99 1013.97L595.68 1038.97L552.38 1013.97L552.38 963.97zM638.99 263.97L682.29 288.97L682.29 338.97L638.99 363.97L595.68 338.97L595.68 288.97zM638.99 413.97L682.29 438.97L682.29 488.97L638.99 513.97L595.68 488.97L595.68 438.97zM682.29 488.97L725.59 513.97L725.59 563.97L682.29 588.97L638.99 563.97L638.99 513.97zM638.99 563.97L682.29 588.97L682.29 638.97L638.99 663.97L595.68 638.97L595.68 588.97zM682.29 638.97L725.59 663.97L725.59 713.97L682.29 738.97L638.99 713.97L638.99 663.97zM638.99 713.97L682.29 738.97L682.29 788.97L638.99 813.97L595.68 788.97L595.68 738.97zM682.29 788.97L725.59 813.97L725.59 863.97L682.29 888.97L638.99 863.97L638.99 813.97zM638.99 1013.97L682.29 1038.97L682.29 1088.97L638.99 1113.97L595.68 1088.97L595.68 1038.97zM768.89 188.97L812.2 213.97L812.2 263.97L768.89 288.97L725.59 263.97L725.59 213.97zM768.89 338.97L812.2 363.97L812.2 413.97L768.89 438.97L725.59 413.97L725.59 363.97zM725.59 413.97L768.89 438.97L768.89 488.97L725.59 513.97L682.29 488.97L682.29 438.97zM725.59 563.97L768.89 588.97L768.89 638.97L725.59 663.97L682.29 638.97L682.29 588.97zM768.89 638.97L812.2 663.97L812.2 713.97L768.89 738.97L725.59 713.97L725.59 663.97zM725.59 713.97L768.89 738.97L768.89 788.97L725.59 813.97L682.29 788.97L682.29 738.97zM768.89 788.97L812.2 813.97L812.2 863.97L768.89 888.97L725.59 863.97L725.59 813.97zM855.5 38.97L898.8 63.97L898.8 113.97L855.5 138.97L812.2 113.97L812.2 63.97zM812.2 113.97L855.5 138.97L855.5 188.97L812.2 213.97L768.89 188.97L768.89 138.97zM812.2 263.97L855.5 288.97L855.5 338.97L812.2 363.97L768.89 338.97L768.89 288.97zM855.5 788.97L898.8 813.97L898.8 863.97L855.5 888.97L812.2 863.97L812.2 813.97zM855.5 938.97L898.8 963.97L898.8 1013.97L855.5 1038.97L812.2 1013.97L812.2 963.97zM898.8 113.97L942.1 138.97L942.1 188.97L898.8 213.97L855.5 188.97L855.5 138.97zM942.1 188.97L985.41 213.97L985.41 263.97L942.1 288.97L898.8 263.97L898.8 213.97zM942.1 338.97L985.41 363.97L985.41 413.97L942.1 438.97L898.8 413.97L898.8 363.97zM898.8 413.97L942.1 438.97L942.1 488.97L898.8 513.97L855.5 488.97L855.5 438.97zM942.1 488.97L985.41 513.97L985.41 563.97L942.1 588.97L898.8 563.97L898.8 513.97zM942.1 788.97L985.41 813.97L985.41 863.97L942.1 888.97L898.8 863.97L898.8 813.97zM898.8 863.97L942.1 888.97L942.1 938.97L898.8 963.97L855.5 938.97L855.5 888.97zM898.8 1013.97L942.1 1038.97L942.1 1088.97L898.8 1113.97L855.5 1088.97L855.5 1038.97zM985.41 -36.03L1028.71 -11.03L1028.71 38.97L985.41 63.97L942.1 38.97L942.1 -11.03zM1028.71 38.97L1072.01 63.97L1072.01 113.97L1028.71 138.97L985.41 113.97L985.41 63.97zM985.41 113.97L1028.71 138.97L1028.71 188.97L985.41 213.97L942.1 188.97L942.1 138.97zM1028.71 188.97L1072.01 213.97L1072.01 263.97L1028.71 288.97L985.41 263.97L985.41 213.97zM1028.71 638.97L1072.01 663.97L1072.01 713.97L1028.71 738.97L985.41 713.97L985.41 663.97zM985.41 713.97L1028.71 738.97L1028.71 788.97L985.41 813.97L942.1 788.97L942.1 738.97zM1028.71 788.97L1072.01 813.97L1072.01 863.97L1028.71 888.97L985.41 863.97L985.41 813.97zM1115.31 38.97L1158.62 63.97L1158.62 113.97L1115.31 138.97L1072.01 113.97L1072.01 63.97zM1115.31 188.97L1158.62 213.97L1158.62 263.97L1115.31 288.97L1072.01 263.97L1072.01 213.97zM1072.01 263.97L1115.31 288.97L1115.31 338.97L1072.01 363.97L1028.71 338.97L1028.71 288.97zM1072.01 563.97L1115.31 588.97L1115.31 638.97L1072.01 663.97L1028.71 638.97L1028.71 588.97zM1115.31 638.97L1158.62 663.97L1158.62 713.97L1115.31 738.97L1072.01 713.97L1072.01 663.97zM1115.31 788.97L1158.62 813.97L1158.62 863.97L1115.31 888.97L1072.01 863.97L1072.01 813.97zM1115.31 938.97L1158.62 963.97L1158.62 1013.97L1115.31 1038.97L1072.01 1013.97L1072.01 963.97zM1158.62 -36.03L1201.92 -11.03L1201.92 38.97L1158.62 63.97L1115.31 38.97L1115.31 -11.03zM1201.92 38.97L1245.22 63.97L1245.22 113.97L1201.92 138.97L1158.62 113.97L1158.62 63.97zM1158.62 413.97L1201.92 438.97L1201.92 488.97L1158.62 513.97L1115.31 488.97L1115.31 438.97zM1201.92 488.97L1245.22 513.97L1245.22 563.97L1201.92 588.97L1158.62 563.97L1158.62 513.97zM1201.92 638.97L1245.22 663.97L1245.22 713.97L1201.92 738.97L1158.62 713.97L1158.62 663.97zM1201.92 788.97L1245.22 813.97L1245.22 863.97L1201.92 888.97L1158.62 863.97L1158.62 813.97zM1201.92 938.97L1245.22 963.97L1245.22 1013.97L1201.92 1038.97L1158.62 1013.97L1158.62 963.97zM1288.52 38.97L1331.83 63.97L1331.83 113.97L1288.52 138.97L1245.22 113.97L1245.22 63.97zM1245.22 113.97L1288.52 138.97L1288.52 188.97L1245.22 213.97L1201.92 188.97L1201.92 138.97zM1288.52 188.97L1331.83 213.97L1331.83 263.97L1288.52 288.97L1245.22 263.97L1245.22 213.97zM1245.22 563.97L1288.52 588.97L1288.52 638.97L1245.22 663.97L1201.92 638.97L1201.92 588.97zM1288.52 638.97L1331.83 663.97L1331.83 713.97L1288.52 738.97L1245.22 713.97L1245.22 663.97zM1245.22 713.97L1288.52 738.97L1288.52 788.97L1245.22 813.97L1201.92 788.97L1201.92 738.97zM1331.83 -36.03L1375.13 -11.03L1375.13 38.97L1331.83 63.97L1288.52 38.97L1288.52 -11.03zM1375.13 188.97L1418.43 213.97L1418.43 263.97L1375.13 288.97L1331.83 263.97L1331.83 213.97zM1331.83 263.97L1375.13 288.97L1375.13 338.97L1331.83 363.97L1288.52 338.97L1288.52 288.97zM1375.13 338.97L1418.43 363.97L1418.43 413.97L1375.13 438.97L1331.83 413.97L1331.83 363.97zM1331.83 563.97L1375.13 588.97L1375.13 638.97L1331.83 663.97L1288.52 638.97L1288.52 588.97zM1375.13 638.97L1418.43 663.97L1418.43 713.97L1375.13 738.97L1331.83 713.97L1331.83 663.97zM1331.83 1013.97L1375.13 1038.97L1375.13 1088.97L1331.83 1113.97L1288.52 1088.97L1288.52 1038.97zM1418.43 -36.03L1461.73 -11.03L1461.73 38.97L1418.43 63.97L1375.13 38.97L1375.13 -11.03zM1461.73 338.97L1505.04 363.97L1505.04 413.97L1461.73 438.97L1418.43 413.97L1418.43 363.97zM1461.73 488.97L1505.04 513.97L1505.04 563.97L1461.73 588.97L1418.43 563.97L1418.43 513.97zM1418.43 563.97L1461.73 588.97L1461.73 638.97L1418.43 663.97L1375.13 638.97L1375.13 588.97zM1461.73 638.97L1505.04 663.97L1505.04 713.97L1461.73 738.97L1418.43 713.97L1418.43 663.97zM1461.73 938.97L1505.04 963.97L1505.04 1013.97L1461.73 1038.97L1418.43 1013.97L1418.43 963.97zM1418.43 1013.97L1461.73 1038.97L1461.73 1088.97L1418.43 1113.97L1375.13 1088.97L1375.13 1038.97zM1548.34 188.97L1591.64 213.97L1591.64 263.97L1548.34 288.97L1505.04 263.97L1505.04 213.97zM1505.04 413.97L1548.34 438.97L1548.34 488.97L1505.04 513.97L1461.73 488.97L1461.73 438.97zM1548.34 488.97L1591.64 513.97L1591.64 563.97L1548.34 588.97L1505.04 563.97L1505.04 513.97zM1505.04 863.97L1548.34 888.97L1548.34 938.97L1505.04 963.97L1461.73 938.97L1461.73 888.97zM1548.34 938.97L1591.64 963.97L1591.64 1013.97L1548.34 1038.97L1505.04 1013.97L1505.04 963.97zM1505.04 1013.97L1548.34 1038.97L1548.34 1088.97L1505.04 1113.97L1461.73 1088.97L1461.73 1038.97zM1634.94 38.97L1678.25 63.97L1678.25 113.97L1634.94 138.97L1591.64 113.97L1591.64 63.97zM1591.64 113.97L1634.94 138.97L1634.94 188.97L1591.64 213.97L1548.34 188.97L1548.34 138.97zM1634.94 188.97L1678.25 213.97L1678.25 263.97L1634.94 288.97L1591.64 263.97L1591.64 213.97zM1634.94 338.97L1678.25 363.97L1678.25 413.97L1634.94 438.97L1591.64 413.97L1591.64 363.97zM1591.64 413.97L1634.94 438.97L1634.94 488.97L1591.64 513.97L1548.34 488.97L1548.34 438.97zM1591.64 563.97L1634.94 588.97L1634.94 638.97L1591.64 663.97L1548.34 638.97L1548.34 588.97zM1634.94 638.97L1678.25 663.97L1678.25 713.97L1634.94 738.97L1591.64 713.97L1591.64 663.97zM1591.64 713.97L1634.94 738.97L1634.94 788.97L1591.64 813.97L1548.34 788.97L1548.34 738.97zM1634.94 788.97L1678.25 813.97L1678.25 863.97L1634.94 888.97L1591.64 863.97L1591.64 813.97zM1634.94 938.97L1678.25 963.97L1678.25 1013.97L1634.94 1038.97L1591.64 1013.97L1591.64 963.97zM1678.25 -36.03L1721.55 -11.03L1721.55 38.97L1678.25 63.97L1634.94 38.97L1634.94 -11.03zM1721.55 38.97L1764.85 63.97L1764.85 113.97L1721.55 138.97L1678.25 113.97L1678.25 63.97zM1678.25 113.97L1721.55 138.97L1721.55 188.97L1678.25 213.97L1634.94 188.97L1634.94 138.97zM1721.55 188.97L1764.85 213.97L1764.85 263.97L1721.55 288.97L1678.25 263.97L1678.25 213.97zM1678.25 263.97L1721.55 288.97L1721.55 338.97L1678.25 363.97L1634.94 338.97L1634.94 288.97zM1721.55 338.97L1764.85 363.97L1764.85 413.97L1721.55 438.97L1678.25 413.97L1678.25 363.97zM1678.25 413.97L1721.55 438.97L1721.55 488.97L1678.25 513.97L1634.94 488.97L1634.94 438.97zM1721.55 638.97L1764.85 663.97L1764.85 713.97L1721.55 738.97L1678.25 713.97L1678.25 663.97zM1721.55 938.97L1764.85 963.97L1764.85 1013.97L1721.55 1038.97L1678.25 1013.97L1678.25 963.97zM1808.15 38.97L1851.46 63.97L1851.46 113.97L1808.15 138.97L1764.85 113.97L1764.85 63.97zM1808.15 338.97L1851.46 363.97L1851.46 413.97L1808.15 438.97L1764.85 413.97L1764.85 363.97zM1808.15 488.97L1851.46 513.97L1851.46 563.97L1808.15 588.97L1764.85 563.97L1764.85 513.97zM1808.15 638.97L1851.46 663.97L1851.46 713.97L1808.15 738.97L1764.85 713.97L1764.85 663.97zM1808.15 938.97L1851.46 963.97L1851.46 1013.97L1808.15 1038.97L1764.85 1013.97L1764.85 963.97zM1764.85 1013.97L1808.15 1038.97L1808.15 1088.97L1764.85 1113.97L1721.55 1088.97L1721.55 1038.97zM1851.46 -36.03L1894.76 -11.03L1894.76 38.97L1851.46 63.97L1808.15 38.97L1808.15 -11.03zM1894.76 188.97L1938.06 213.97L1938.06 263.97L1894.76 288.97L1851.46 263.97L1851.46 213.97zM1851.46 263.97L1894.76 288.97L1894.76 338.97L1851.46 363.97L1808.15 338.97L1808.15 288.97zM1851.46 413.97L1894.76 438.97L1894.76 488.97L1851.46 513.97L1808.15 488.97L1808.15 438.97zM1894.76 488.97L1938.06 513.97L1938.06 563.97L1894.76 588.97L1851.46 563.97L1851.46 513.97zM1851.46 563.97L1894.76 588.97L1894.76 638.97L1851.46 663.97L1808.15 638.97L1808.15 588.97zM1851.46 713.97L1894.76 738.97L1894.76 788.97L1851.46 813.97L1808.15 788.97L1808.15 738.97zM1851.46 863.97L1894.76 888.97L1894.76 938.97L1851.46 963.97L1808.15 938.97L1808.15 888.97zM1938.06 -36.03L1981.36 -11.03L1981.36 38.97L1938.06 63.97L1894.76 38.97L1894.76 -11.03zM1981.36 38.97L2024.67 63.97L2024.67 113.97L1981.36 138.97L1938.06 113.97L1938.06 63.97zM1938.06 113.97L1981.36 138.97L1981.36 188.97L1938.06 213.97L1894.76 188.97L1894.76 138.97zM1981.36 188.97L2024.67 213.97L2024.67 263.97L1981.36 288.97L1938.06 263.97L1938.06 213.97zM1981.36 338.97L2024.67 363.97L2024.67 413.97L1981.36 438.97L1938.06 413.97L1938.06 363.97zM1938.06 413.97L1981.36 438.97L1981.36 488.97L1938.06 513.97L1894.76 488.97L1894.76 438.97zM1981.36 488.97L2024.67 513.97L2024.67 563.97L1981.36 588.97L1938.06 563.97L1938.06 513.97zM1981.36 638.97L2024.67 663.97L2024.67 713.97L1981.36 738.97L1938.06 713.97L1938.06 663.97z" stroke="rgba(239, 68, 68, 0.29)" stroke-width="2"></path></g><defs><mask id="SvgjsMask1012"><rect width="1920" height="1080" fill="#ffffff"></rect></mask></defs></svg>