<svg xmlns="http://www.w3.org/2000/svg" version="1.1" xmlns:xlink="http://www.w3.org/1999/xlink" xmlns:svgjs="http://svgjs.com/svgjs" width="1440" height="560" preserveAspectRatio="none" viewBox="0 0 1440 560"><g mask="url(&quot;#SvgjsMask1075&quot;)" fill="none"><path d="M -260.1766553253903,400 C -202.58,337.6 -87.38,110.2 27.82334467460972,88 C 143.02,65.8 200.62,257.2 315.8233446746097,289 C 431.02,320.8 488.62,223.2 603.8233446746098,247 C 719.02,270.8 776.62,440.4 891.8233446746098,408 C 1007.02,375.6 1064.62,90.8 1179.8233446746096,85 C 1295.02,79.2 1415.79,376.4 1467.8233446746096,379 C 1519.86,381.6 1445.56,154.2 1440,98" stroke="rgba(239, 68, 68, 0.6)" stroke-width="2"></path><path d="M -181.79285767573387,279 C -124.19,296.2 -8.99,398.4 106.20714232426613,365 C 221.41,331.6 279.01,126 394.2071423242661,112 C 509.41,98 567.01,271 682.2071423242661,295 C 797.41,319 855.01,202.4 970.2071423242661,232 C 1085.41,261.6 1143.01,441.6 1258.2071423242662,443 C 1373.41,444.4 1509.85,239.8 1546.2071423242662,239 C 1582.57,238.2 1461.24,399 1440,439" stroke="rgba(239, 68, 68, 0.6)" stroke-width="2"></path><path d="M -269.0293303022387,254 C -211.43,278.8 -96.23,389.2 18.970669697761302,378 C 134.17,366.8 191.77,217 306.9706696977613,198 C 422.17,179 479.77,281.2 594.9706696977613,283 C 710.17,284.8 767.77,203.8 882.9706696977613,207 C 998.17,210.2 1055.77,287.2 1170.9706696977612,299 C 1286.17,310.8 1405.16,253.6 1458.9706696977612,266 C 1512.78,278.4 1443.79,342 1440,361" stroke="rgba(239, 68, 68, 0.6)" stroke-width="2"></path><path d="M -374.7150221542091,290 C -317.12,278 -201.92,220 -86.71502215420914,230 C 28.48,240 86.08,357.4 201.28497784579088,340 C 316.48,322.6 374.08,119.4 489.2849778457909,143 C 604.48,166.6 662.08,437.6 777.2849778457909,458 C 892.48,478.4 950.08,263 1065.2849778457908,245 C 1180.48,227 1278.34,404.8 1353.2849778457908,368 C 1428.23,331.2 1422.66,122.4 1440,61" stroke="rgba(239, 68, 68, 0.6)" stroke-width="2"></path></g><defs><mask id="SvgjsMask1075"><rect width="1440" height="560" fill="#ffffff"></rect></mask></defs></svg>