<svg xmlns="http://www.w3.org/2000/svg" version="1.1" xmlns:xlink="http://www.w3.org/1999/xlink" xmlns:svgjs="http://svgjs.com/svgjs" width="1920" height="560" preserveAspectRatio="none" viewBox="0 0 1920 560"><g mask="url(&quot;#SvgjsMask1034&quot;)" fill="none"><path d="M 0,12 C 76.8,71 230.4,269.8 384,307 C 537.6,344.2 614.4,194.6 768,198 C 921.6,201.4 998.4,314.6 1152,324 C 1305.6,333.4 1382.4,222.4 1536,245 C 1689.6,267.6 1843.2,398.6 1920,437L1920 560L0 560z" fill="rgba(239, 68, 68, 0.67)"></path><path d="M 0,252 C 128,297.2 384,510.2 640,478 C 896,445.8 1024,79.6 1280,91 C 1536,102.4 1792,446.2 1920,535L1920 560L0 560z" fill="rgba(239, 68, 68, 1)"></path></g><defs><mask id="SvgjsMask1034"><rect width="1920" height="560" fill="#ffffff"></rect></mask></defs></svg>