<svg xmlns="http://www.w3.org/2000/svg" version="1.1" xmlns:xlink="http://www.w3.org/1999/xlink" xmlns:svgjs="http://svgjs.com/svgjs" width="1920" height="1080" preserveAspectRatio="none" viewBox="0 0 1920 1080"><g mask="url(&quot;#SvgjsMask1018&quot;)" fill="none"><path d="M0 53.29C15.15 8.85 41.55 9.97 92.05 0C176.55 -16.68 181.02 0 270 0C405 0 405 0 540 0C647.58 0 736.28 -56.65 755.16 0C781.28 78.35 613.3 168.3 630 270C640.72 335.28 734.93 279.31 810 333.95C920.42 414.31 908.62 434.33 1000.98 540C1043.62 588.79 1023.99 618.49 1080 642.86C1198.5 694.43 1239.53 722.99 1350 691.88C1422.18 671.56 1389.91 610.03 1445.29 540C1524.91 439.31 1536.13 448.04 1620 350.43C1652.12 313.04 1677.27 310.22 1677.27 270C1677.27 229.78 1650.85 228.07 1620 189.57C1542.66 93.07 1460.89 57.69 1460.89 0C1460.89 -37.09 1540.45 0 1620 0C1755 0 1755 0 1890 0C1992 0 2027.27 -48.94 2094 0C2162.27 50.06 2135.46 97.63 2160 198C2168.46 232.63 2160 234 2160 270C2160 405 2160 405 2160 540C2160 675 2160 675 2160 810C2160 945 2226.57 1011.57 2160 1080C2095.22 1146.57 2027.16 1083.56 1897.3 1080C1892.16 1079.86 1893.81 1072.6 1890 1072.6C1885.81 1072.6 1886.95 1079.84 1881.29 1080C1751.95 1083.54 1750.64 1080 1620 1080C1485 1080 1485 1080 1350 1080C1215 1080 1215 1080 1080 1080C945 1080 945 1080 810 1080C752.14 1080 748.49 1095.49 694.29 1080C613.49 1056.92 606.46 1002.86 540 1002.86C504.77 1002.86 530.43 1068.71 490.91 1080C395.43 1107.28 380.46 1080 270 1080C142.11 1080 126.73 1100.46 14.21 1080C-8.27 1075.91 1.33 1056.27 0 1030.91C-5.77 921.27 0 920.45 0 810C0 675 0 675 0 540C0 405 0 405 0 270C0 161.64 -30.87 143.85 0 53.29" stroke="rgba(239, 68, 68, 0.34)" stroke-width="2"></path><path d="M1080 265.5C973.56 265.5 858.75 80.94 858.75 0C858.75 -51.81 969.38 0 1080 0C1177.14 0 1274.27 -49.29 1274.27 0C1274.27 83.46 1181.32 265.5 1080 265.5" stroke="rgba(239, 68, 68, 0.34)" stroke-width="2"></path><path d="M270 743.38C180.4 743.38 86.79 771.09 86.79 810C86.79 851.03 181.8 903.27 270 903.27C339.18 903.27 401.54 851.76 401.54 810C401.54 771.81 337.77 743.38 270 743.38" stroke="rgba(239, 68, 68, 0.34)" stroke-width="2"></path><path d="M0 142.11C84.58 49.07 121.2 65.39 245.45 0C256.2 -5.66 257.73 0 270 0C405 0 405 0 540 0C594.85 0 649.69 -29.61 649.69 0C649.69 53.96 608.48 97.1 540 167.14C476.49 232.1 385.71 215.75 385.71 270C385.71 327.18 451.29 358.06 540 390C663.44 434.44 690.75 375.52 810 422.76C880.08 450.52 918.66 476.65 918.66 540C918.66 619.33 889.89 662.54 810 708.11C700.56 770.54 671.68 768.78 540 756C401.68 742.58 402.5 711.74 270 655.71C147.1 603.74 146.7 602.11 29.19 540C11.7 530.76 2.05 531.98 0 513C-12.54 396.98 0 391.5 0 270C0 206.06 -38.14 184.07 0 142.11" stroke="rgba(239, 68, 68, 0.34)" stroke-width="2"></path><path d="M1080 153C1018.66 153 952.5 46.64 952.5 0C952.5 -29.86 1016.25 0 1080 0C1135.97 0 1191.95 -28.4 1191.95 0C1191.95 48.1 1138.39 153 1080 153" stroke="rgba(239, 68, 68, 0.34)" stroke-width="2"></path><path d="M1620 45.96C1602.26 21.78 1581.43 13.99 1581.43 0C1581.43 -8.99 1600.72 0 1620 0C1755 0 1755 0 1890 0C1917 0 1931.98 -21.37 1944 0C2007.92 113.63 2014.8 130.86 2041.88 270C2067.35 400.86 2017.15 412.73 2049.11 540C2076.21 647.89 2117.49 636.82 2160 740.32C2172.94 771.82 2160 775.16 2160 810C2160 945 2212.44 997.44 2160 1080C2126.69 1132.44 2062.77 1107.46 1988.51 1080C1927.77 1057.53 1941.46 980.14 1890 980.14C1833.41 980.14 1840.33 1054.88 1772.42 1080C1705.33 1104.81 1696.21 1080 1620 1080C1521.57 1080 1452.47 1136.23 1423.13 1080C1382.03 1001.23 1441.3 942.2 1479.13 810C1518.56 672.2 1519.8 669.76 1577.65 540C1590.23 511.78 1601.31 519.04 1620 494.04C1702.26 384.04 1779.55 382.02 1779.55 270C1779.55 157.98 1701.32 156.78 1620 45.96" stroke="rgba(239, 68, 68, 0.34)" stroke-width="2"></path><path d="M968.82 810C968.82 763.14 1022.65 750 1080 750C1153.84 750 1231.2 757.89 1231.2 810C1231.2 892.89 1148.39 1020 1080 1020C1017.2 1020 968.82 898.14 968.82 810" stroke="rgba(239, 68, 68, 0.34)" stroke-width="2"></path><path d="M191.84 1080C191.84 1065.19 231.87 1026 270 1026C304.7 1026 337.5 1064.84 337.5 1080C337.5 1091.84 303.75 1080 270 1080C230.92 1080 191.84 1092.19 191.84 1080" stroke="rgba(239, 68, 68, 0.34)" stroke-width="2"></path><path d="M0 230.92C47.55 230.92 123.75 243.17 123.75 270C123.75 299.84 40.86 344.25 0 344.25C-21.02 344.25 0 307.13 0 270C0 250.46 -14.32 230.92 0 230.92" stroke="rgba(239, 68, 68, 0.34)" stroke-width="2"></path><path d="M540 6.43C534.7 6.43 527.73 1.7 527.73 0C527.73 -1.51 533.87 0 540 0C542.11 0 544.22 -1.14 544.22 0C544.22 2.08 542.94 6.43 540 6.43" stroke="rgba(239, 68, 68, 0.34)" stroke-width="2"></path><path d="M1080 40.5C1063.76 40.5 1046.25 12.35 1046.25 0C1046.25 -7.9 1063.13 0 1080 0C1094.82 0 1109.63 -7.52 1109.63 0C1109.63 12.73 1095.45 40.5 1080 40.5" stroke="rgba(239, 68, 68, 0.34)" stroke-width="2"></path><path d="M1881.82 270C1886.12 255.06 1885.22 240 1890 240C1894.93 240 1899.21 254.16 1901.25 270C1918.5 404.16 1895.33 409.89 1928.57 540C1964.31 679.89 2051.44 699.73 2039.21 810C2032.16 873.57 1965.46 887.67 1890 887.67C1807.48 887.67 1740.31 878.67 1723.24 810C1697.11 704.84 1763.91 675.14 1803.6 540C1843.2 405.14 1842.92 405.06 1881.82 270" stroke="rgba(239, 68, 68, 0.34)" stroke-width="2"></path><path d="M211.62 540C211.62 497.71 227.67 437.14 270 437.14C339.94 437.14 436.15 504.85 436.15 540C436.15 570.31 351.09 568.05 270 568.05C238.83 568.05 211.62 563.16 211.62 540" stroke="rgba(239, 68, 68, 0.34)" stroke-width="2"></path><path d="M643.85 540C643.85 522.84 731.74 511.58 810 511.58C827.99 511.58 836.34 524.64 836.34 540C836.34 559.23 831.27 580.75 810 580.75C735.02 580.75 643.85 557.42 643.85 540" stroke="rgba(239, 68, 68, 0.34)" stroke-width="2"></path><path d="M1563.75 1080C1563.75 1039.02 1594.57 962.61 1620 962.61C1644.47 962.61 1663.55 1036.45 1663.55 1080C1663.55 1095.15 1641.78 1080 1620 1080C1591.88 1080 1563.75 1097.71 1563.75 1080" stroke="rgba(239, 68, 68, 0.34)" stroke-width="2"></path><path d="M2079.73 1080C2079.73 1028.06 2138.7 927.69 2160 927.69C2178.84 927.69 2186.28 1030.13 2160 1080C2146.15 1106.28 2079.73 1104.22 2079.73 1080" stroke="rgba(239, 68, 68, 0.34)" stroke-width="2"></path></g><defs><mask id="SvgjsMask1018"><rect width="1920" height="1080" fill="#ffffff"></rect></mask></defs></svg>